# xmcd
#
# Track frame offsets: 
#        150
#        16386
#        33604
#        46710
#        66128
#        77935
#        90216
#        105489
#        122604
#        137200
#        150963
#        163046
#        179314
#        191259
#        200449
#        209339
#        219961
#        230398
#        242417
#        255699
#
# Disc length: 3582 seconds
#
# Revision: 0
# Processed by: cddbd v1.5.2PL0 Copyright (c) Steve Scherf et al.
# Submitted via: ExactAudioCopy v0.95b4
#
DISCID=fc0dfc14
DTITLE=Various Artist - De Top Collectie 60's [CD1)
DYEAR=2010
DGENRE=Oldies
TTITLE0=The Beach Boys - Good Vibration
TTITLE1=Simon and Garfunkel - Mrs. Robinson
TTITLE2=Stevie Wonder - My Cherie Amour
TTITLE3=Jane Birkin and Serge Gainsbourg - Je T'aime Moi Non Plus
TTITLE4=Nancy Sinatra and Frank Sinatra - Somethin' Stupid
TTITLE5=Cliff Richard and The Shadows - Lucky Lips
TTITLE6=The Mamas and The Papas - Monday Monday
TTITLE7=Leonard Cohen - Suzanne
TTITLE8=Wim Sonneveld - Het Dorp
TTITLE9=Van Morrison - Brown Eyed Girl
TTITLE10=Otis Redding - (Sittin' On) The Dock Of The Bay
TTITLE11=Donovan - Mellow Yellow
TTITLE12=The Tokens - The Lion Sleeps Tonight
TTITLE13=Tim Hardin - How Can We Hang On To A Dream
TTITLE14=The Mindbenders - A Groovy Kind Of Love
TTITLE15=Sandie Shaw - Puppet On A String
TTITLE16=The Lovin' Spoonful - Daydream
TTITLE17=Nonkel Bob - Annemarie
TTITLE18=Scott McKenzie - San Francisco
TTITLE19=The Shadows - Apache
EXTD=
EXTT0=
EXTT1=
EXTT2=
EXTT3=
EXTT4=
EXTT5=
EXTT6=
EXTT7=
EXTT8=
EXTT9=
EXTT10=
EXTT11=
EXTT12=
EXTT13=
EXTT14=
EXTT15=
EXTT16=
EXTT17=
EXTT18=
EXTT19=
PLAYORDER=
